<?xml version="1.0" standalone="no"?>
<!DOCTYPE svg PUBLIC "-//W3C//DTD SVG 20010904//EN"
 "http://www.w3.org/TR/2001/REC-SVG-20010904/DTD/svg10.dtd">
<svg version="1.0" xmlns="http://www.w3.org/2000/svg"
 width="7875.000000pt" height="7875.000000pt" viewBox="0 0 7875.000000 7875.000000"
 preserveAspectRatio="xMidYMid meet">

<g transform="translate(0.000000,7875.000000) scale(0.100000,-0.100000)"
fill="#000000" stroke="none">
<path d="M32882 49429 c-636 -31 -1256 -219 -1802 -546 -125 -74 -355 -232
-348 -238 2 -2 57 3 123 10 306 35 743 46 1030 25 668 -49 1263 -207 1840
-490 753 -369 1416 -923 2054 -1715 488 -605 955 -1254 1634 -2270 209 -313
451 -669 537 -790 478 -673 627 -962 659 -1282 19 -190 -19 -366 -129 -588
-139 -282 -331 -530 -774 -1000 -78 -82 -243 -260 -366 -395 -274 -299 -837
-864 -1340 -1345 -206 -197 -462 -445 -568 -549 l-193 -191 -32 40 c-18 22
-93 114 -166 205 -294 360 -380 469 -445 562 -74 108 -295 477 -904 1513 -223
380 -578 985 -790 1345 -1741 2961 -2401 3958 -3223 4865 -482 532 -1092 846
-1859 955 -509 73 -1075 37 -1635 -105 -389 -98 -747 -236 -1091 -419 -156
-83 -311 -179 -297 -183 6 -2 73 3 150 11 491 55 1019 41 1488 -40 860 -149
1626 -541 2266 -1161 403 -391 924 -1011 1491 -1773 446 -601 1406 -1947 2199
-3085 259 -371 1843 -2656 1904 -2745 43 -65 110 -219 99 -229 -5 -5 -61 -31
-124 -59 -790 -341 -1810 -391 -2780 -136 -688 180 -1341 521 -1829 953 -473
418 -976 975 -1703 1883 -430 538 -577 739 -1078 1473 -635 932 -901 1277
-1255 1630 -742 741 -1580 1148 -2555 1240 -215 21 -679 16 -890 -9 -740 -88
-1453 -309 -2253 -699 -141 -69 -223 -114 -215 -118 8 -4 272 -12 588 -18
1007 -19 1391 -46 1828 -127 1057 -195 2026 -774 2994 -1789 309 -325 494
-537 1099 -1265 560 -673 804 -954 1105 -1275 181 -193 493 -498 659 -646
1198 -1067 2559 -1651 4078 -1750 233 -15 885 -6 1102 15 320 32 596 73 935
140 249 49 326 59 485 59 165 0 287 -22 416 -75 162 -66 260 -132 499 -338
557 -478 1045 -814 1550 -1069 633 -320 1224 -490 1879 -541 172 -13 715 -13
891 0 492 37 963 147 1440 338 663 265 1303 675 2015 1292 172 149 285 227
418 290 182 87 370 119 593 100 137 -11 115 -8 389 -61 652 -126 1069 -165
1687 -156 399 5 543 16 868 63 1207 173 2334 685 3325 1509 562 467 1048 985
1990 2120 192 231 439 526 550 655 855 996 1551 1588 2323 1974 581 291 1101
430 1832 490 282 24 560 34 1195 47 319 6 586 14 594 19 16 9 -52 45 -329 175
-817 382 -1575 598 -2294 655 -164 13 -535 13 -691 0 -879 -74 -1669 -415
-2357 -1019 -161 -141 -435 -422 -572 -586 -198 -238 -435 -559 -748 -1015
-96 -140 -259 -379 -363 -530 -395 -575 -691 -965 -1259 -1655 -449 -546 -940
-1075 -1279 -1378 -552 -493 -1202 -832 -1952 -1017 -867 -214 -1736 -191
-2481 64 -117 40 -317 122 -352 145 -29 18 75 203 290 511 113 162 521 752
908 1310 1310 1890 2305 3297 2953 4175 753 1019 1384 1740 1857 2120 396 318
857 569 1335 727 618 204 1349 271 2104 192 84 -8 155 -14 157 -11 5 5 -225
141 -357 211 -330 174 -786 338 -1179 425 -1102 242 -2144 72 -2899 -472 -198
-143 -385 -323 -625 -602 -782 -911 -1412 -1879 -3128 -4800 -1295 -2204
-1517 -2581 -1589 -2686 -69 -103 -152 -210 -334 -434 -94 -115 -208 -256
-254 -313 l-82 -103 -113 108 c-1077 1031 -1571 1518 -1885 1858 -102 110
-298 322 -437 470 -275 295 -388 422 -498 560 -220 276 -356 519 -418 745 -20
73 -23 108 -22 240 0 135 4 167 27 251 76 279 239 565 634 1119 88 124 313
455 500 735 543 814 837 1233 1218 1740 590 785 939 1177 1390 1560 355 301
691 523 1095 724 538 267 1066 419 1690 488 233 25 849 25 1100 0 96 -10 186
-20 200 -23 23 -5 23 -3 -10 26 -52 46 -268 188 -405 265 -626 356 -1368 530
-2100 494 -1289 -63 -2478 -706 -3293 -1781 -198 -262 -643 -956 -1069 -1668
-183 -307 -254 -428 -820 -1400 -204 -349 -442 -754 -530 -900 -88 -146 -208
-346 -268 -445 -59 -99 -113 -186 -120 -193 -9 -10 -31 19 -107 145 -52 87
-174 289 -270 448 -166 274 -415 699 -913 1555 -685 1178 -1230 2052 -1525
2445 -745 992 -1804 1619 -2990 1769 -108 14 -487 38 -530 34 -8 0 -84 -4
-168 -9z m6683 -8909 c321 -27 581 -98 870 -240 727 -356 1216 -1041 1326
-1860 17 -122 17 -458 0 -580 -37 -278 -111 -523 -231 -765 -125 -253 -261
-444 -455 -640 -365 -367 -828 -600 -1355 -682 -159 -24 -530 -25 -685 0 -506
79 -951 296 -1311 639 -389 372 -636 849 -721 1393 -25 156 -25 536 0 694 106
676 479 1266 1037 1641 449 302 991 444 1525 400z"/>
<path d="M38372 39981 c-242 -84 -656 -581 -768 -921 -26 -80 -25 -173 2 -201
170 -169 904 672 904 1036 0 91 -45 119 -138 86z"/>
<path d="M52570 33769 c-76 -13 -171 -61 -215 -110 -45 -50 -81 -126 -95 -199
-6 -34 -10 -757 -10 -2072 l0 -2018 168 2 167 3 5 1993 5 1994 33 29 c18 16
41 29 53 29 28 0 69 -23 100 -57 15 -15 536 -851 1159 -1858 623 -1006 1160
-1873 1195 -1925 71 -108 155 -192 219 -220 107 -48 254 -44 362 10 106 52
168 145 198 295 15 72 16 281 14 2070 l-3 1990 -167 3 -168 2 0 -1992 c0
-1573 -3 -1998 -13 -2018 -18 -37 -66 -47 -114 -24 -35 18 -122 154 -1100
1734 -585 943 -1123 1811 -1195 1929 -74 117 -159 242 -191 277 -67 73 -150
119 -242 134 -69 11 -89 11 -165 -1z"/>
<path d="M22824 33717 c-2 -7 -3 -921 -2 -2032 3 -1958 4 -2022 22 -2070 44
-117 117 -179 252 -217 l79 -23 1358 -3 1357 -3 0 156 0 155 -1302 2 c-1295 3
-1303 3 -1342 24 -25 12 -48 35 -60 60 -21 39 -21 40 -24 2002 l-2 1962 -165
0 c-125 0 -167 -3 -171 -13z"/>
<path d="M27314 33717 c-3 -8 -3 -729 -1 -1603 3 -1460 4 -1597 21 -1692 33
-199 90 -359 178 -503 68 -112 232 -274 350 -347 299 -184 761 -270 1302 -242
304 16 517 57 726 139 388 152 633 446 720 864 39 187 41 297 38 1872 l-3
1520 -167 3 -167 2 -4 -1587 c-3 -1463 -4 -1596 -21 -1692 -67 -396 -266 -636
-616 -746 -191 -59 -291 -70 -680 -70 -293 0 -375 3 -468 18 -277 44 -463 129
-609 279 -160 165 -232 366 -253 702 -5 83 -10 814 -10 1624 l0 1472 -165 0
c-128 0 -167 -3 -171 -13z"/>
<path d="M32130 33721 c0 -5 363 -485 806 -1066 443 -582 807 -1062 810 -1069
2 -6 -372 -503 -831 -1104 -459 -601 -835 -1097 -835 -1103 0 -5 80 -9 194 -9
l194 0 732 980 c403 539 736 978 740 975 5 -3 336 -444 737 -980 l727 -975
198 0 c109 0 198 2 198 5 0 2 -378 500 -841 1105 l-840 1101 74 97 c589 771
1557 2044 1557 2047 0 3 -89 5 -198 5 l-198 0 -709 -951 c-564 -758 -711 -949
-719 -937 -6 8 -325 436 -709 951 l-698 937 -195 0 c-110 0 -194 -4 -194 -9z"/>
<path d="M40500 33719 c-343 -36 -605 -198 -734 -455 -73 -146 -96 -271 -96
-513 0 -462 149 -733 505 -918 114 -59 99 -54 1120 -405 519 -179 965 -338
1010 -360 217 -109 327 -235 369 -419 46 -201 20 -531 -55 -697 -57 -126 -129
-199 -243 -246 -51 -21 -60 -21 -1346 -26 l-1295 -5 0 -150 0 -150 1205 -3
c763 -2 1251 1 1330 7 155 13 231 32 339 83 69 33 100 56 170 127 125 126 185
237 235 443 37 152 49 279 43 446 -14 397 -176 657 -514 826 -121 60 -246 107
-1158 428 -484 170 -909 321 -945 335 -213 83 -336 212 -387 403 -25 93 -25
463 0 565 38 156 112 252 241 315 139 69 47 64 1366 70 l1195 5 0 150 0 150
-1135 1 c-624 1 -1173 -3 -1220 -7z"/>
<path d="M44920 31550 l0 -2180 170 0 170 0 0 2180 0 2180 -170 0 -170 0 0
-2180z"/>
<path d="M46818 32899 c-568 -457 -1068 -866 -1111 -908 -132 -129 -207 -264
-207 -375 0 -131 83 -281 240 -434 63 -62 467 -380 1209 -953 l1115 -859 248
0 c148 0 247 4 244 9 -4 5 -570 443 -1258 973 -747 574 -1286 996 -1335 1044
-184 180 -167 283 77 473 131 101 2242 1810 2270 1837 l25 24 -242 0 -242 0
-1033 -831z"/>
<path d="M49930 31550 l0 -2180 168 2 167 3 0 2175 0 2175 -167 3 -168 2 0
-2180z"/>
</g>
</svg>
